<?xml version="1.0" encoding="utf-8"?>
<!-- Generator: Adobe Illustrator 16.0.0, SVG Export Plug-In . SVG Version: 6.00 Build 0)  -->
<!DOCTYPE svg PUBLIC "-//W3C//DTD SVG 1.1//EN" "http://www.w3.org/Graphics/SVG/1.1/DTD/svg11.dtd">
<svg version="1.1" id="Lager_1" xmlns="http://www.w3.org/2000/svg" xmlns:xlink="http://www.w3.org/1999/xlink" x="0px" y="0px"
	 width="884.396px" height="285.5px" viewBox="0 0 884.396 285.5" enable-background="new 0 0 884.396 285.5" xml:space="preserve">
<g>
	<g>
		<path fill="#747679" d="M447.897,68.719h23.743v21.299h-23.743V68.719z M447.898,102.406h23.743v89.561h-23.743V102.406z"/>
		<path fill="#747679" d="M507.781,116.722h0.524c5.412-10.127,11.522-15.365,21.997-15.365c2.617,0,4.191,0.176,5.587,0.699v20.775
			h-0.525c-15.536-1.57-26.71,6.635-26.71,25.489v43.646H484.91v-89.561h22.871V116.722z"/>
		<path fill="#747679" d="M582.149,68.719h23.743v21.299h-23.743V68.719z M582.15,102.406h23.744v89.561H582.15V102.406z"/>
		<path fill="#747679" d="M642.378,114.626h0.523c6.111-9.602,14.314-14.665,26.535-14.665c18.509,0,30.902,13.966,30.902,33.52
			v58.485h-23.742v-54.994c0-9.602-5.588-16.411-15.539-16.411c-10.474,0-18.156,8.38-18.156,20.601v50.804H619.16v-89.561h23.219
			V114.626z"/>
		<path fill="#747679" d="M710.111,147.099c0-26.537,17.98-47.137,44.168-47.137c28.807,0,44.169,21.997,44.169,53.945h-64.943
			c1.746,13.791,9.427,22.347,22.87,22.347c9.252,0,14.664-4.19,17.283-11h23.395c-3.317,15.888-17.459,29.332-40.503,29.332
			C726.871,194.585,710.111,173.808,710.111,147.099z M733.853,137.497h39.805c-0.699-11.349-8.205-19.206-19.029-19.206
			C742.058,118.291,735.948,125.799,733.853,137.497z"/>
		<path fill="#747679" d="M803.917,162.984h21.997c1.573,10.301,8.903,14.84,19.555,14.84c10.476,0,16.411-4.016,16.411-10.299
			c0-8.555-11.348-9.429-23.568-11.871c-16.063-3.143-31.775-7.508-31.775-27.061c0-19.378,16.063-28.631,36.488-28.631
			c23.568,0,36.662,11.697,38.408,29.678H859.96c-1.049-9.601-7.16-13.093-17.284-13.093c-9.253,0-15.364,3.492-15.364,9.951
			c0,7.681,11.872,8.38,24.617,11c15.014,3.142,31.6,7.332,31.6,28.282c0,17.982-15.365,28.807-37.711,28.807
			C819.804,194.585,805.316,182.016,803.917,162.984z"/>
		<path fill="#747679" d="M391.877,68.719h-27.634l-49.964,123.247h28.282l9.253-25.314h50.979l9.426,25.314h28.458L391.877,68.719z
			 M358.622,145.876L376.954,93.5l18.854,52.375H358.622z"/>
		<rect x="545.138" y="68.719" fill="#747679" width="23.746" height="123.247"/>
	</g>
	<g>
		<path fill="#BED600" d="M283.464,142.692c0,78.301-63.411,141.702-141.689,141.702C63.487,284.394,0,220.993,0,142.692
			C0,64.391,63.487,0.929,141.775,0.929C220.054,0.929,283.464,64.391,283.464,142.692"/>
		<path fill="#FFFFFF" d="M131.447,68.713c-22.325,0-36.808,1.234-47.292,5.126c-17.618,6.863-29.785,21.247-29.785,40.15
			c0,15.744,7.331,27.146,28.547,40.26c22.637,13.723,27.153,18.258,27.153,26.527c0,9.05-8.867,19.351-31.682,19.351
			c-7.963,0-19.957-1.102-27.621-2.977l-3.657-0.922c-2.04,5.469-6.671,18.406-8.083,23.1l3.621,1.065
			c6.894,2.199,23.255,3.916,34.977,3.916c38.995,0,62.261-23.559,62.261-48.229c0-15.159-6.881-26.68-30.142-41.194
			c-11.668-7.177-17.614-11.831-21.225-15.434c-2.927-3.761-3.251-6.56-3.251-9.517c0-2.823,0.628-6.076,2.489-8.459
			c2.013-2.946,5.705-4.823,10.702-6.372c5.136-1.704,14.652-1.749,29.473-1.749h13.8l9.854-24.641H131.447z M235.738,68.713
			h-69.347l-9.855,24.64h22.986c15.467,0,18.442-0.333,22.326-0.333c-5.607,12.827-39.4,98.941-39.4,98.941h28.6
			c0,0,42.784-107.197,47.318-118.436C239.622,71.017,238.998,68.713,235.738,68.713z"/>
	</g>
</g>
</svg>
